<svg width="342" height="104" viewBox="0 0 342 104" fill="none" xmlns="http://www.w3.org/2000/svg">
<path d="M154.903 29.0001V2.47543H163.675C165.506 2.47543 167.224 2.82278 168.828 3.51747C170.432 4.19953 171.841 5.15316 173.053 6.37834C174.266 7.5909 175.213 8.99923 175.895 10.6033C176.59 12.1948 176.937 13.9063 176.937 15.7378C176.937 17.5692 176.59 19.287 175.895 20.8911C175.213 22.4826 174.266 23.8909 173.053 25.1161C171.841 26.3287 170.432 27.2823 168.828 27.977C167.224 28.6591 165.506 29.0001 163.675 29.0001H154.903ZM158.844 25.0593H163.675C164.963 25.0593 166.163 24.8193 167.275 24.3393C168.399 23.8594 169.39 23.1899 170.249 22.331C171.121 21.4721 171.797 20.4806 172.276 19.3565C172.756 18.2323 172.996 17.0261 172.996 15.7378C172.996 14.4494 172.756 13.2432 172.276 12.119C171.797 10.9949 171.121 10.0034 170.249 9.14448C169.39 8.28559 168.399 7.61616 167.275 7.13619C166.163 6.65622 164.963 6.41624 163.675 6.41624H158.844V25.0593Z" fill="white"/>
<path d="M180.639 21.8953V10.0539H184.579V20.929C184.579 21.7753 184.788 22.5458 185.205 23.2404C185.621 23.9351 186.177 24.4909 186.872 24.9077C187.567 25.3119 188.331 25.514 189.164 25.514C190.011 25.514 190.775 25.3119 191.457 24.9077C192.152 24.4909 192.701 23.9351 193.105 23.2404C193.522 22.5458 193.73 21.7753 193.73 20.929V10.0539H197.671L197.69 29.0001H193.749L193.73 26.9539C193.086 27.737 192.284 28.3559 191.324 28.8106C190.364 29.2653 189.335 29.4927 188.236 29.4927C186.834 29.4927 185.558 29.1517 184.409 28.4696C183.259 27.7875 182.344 26.8718 181.662 25.7224C180.98 24.573 180.639 23.2973 180.639 21.8953Z" fill="white"/>
<path d="M203.005 29.0001V10.0539H206.946V12.0622C207.603 11.2791 208.405 10.6602 209.352 10.2055C210.312 9.75076 211.348 9.52341 212.46 9.52341C213.811 9.52341 215.055 9.85181 216.192 10.5086C217.329 11.1528 218.232 12.0117 218.901 13.0853C219.571 12.0117 220.461 11.1528 221.573 10.5086C222.697 9.85181 223.935 9.52341 225.286 9.52341C226.688 9.52341 227.964 9.86444 229.113 10.5465C230.263 11.2286 231.178 12.1443 231.86 13.2937C232.543 14.4431 232.884 15.7188 232.884 17.1208V29.0001H228.943V18.125C228.943 17.2913 228.741 16.5272 228.336 15.8325C227.932 15.1378 227.389 14.5757 226.707 14.1463C226.025 13.7168 225.267 13.5021 224.434 13.5021C223.6 13.5021 222.842 13.7042 222.16 14.1084C221.478 14.5126 220.935 15.062 220.531 15.7567C220.126 16.4514 219.924 17.2408 219.924 18.125V29.0001H215.984V18.125C215.984 17.2408 215.781 16.4514 215.377 15.7567C214.973 15.062 214.424 14.5126 213.729 14.1084C213.047 13.7042 212.289 13.5021 211.455 13.5021C210.634 13.5021 209.877 13.7168 209.182 14.1463C208.5 14.5757 207.957 15.1378 207.552 15.8325C207.148 16.5272 206.946 17.2913 206.946 18.125V29.0001H203.005Z" fill="white"/>
<path d="M242.136 38.4732H238.195V10.0539H242.136V12.839C242.767 11.8664 243.576 11.077 244.561 10.4707C245.546 9.86444 246.708 9.5613 248.047 9.5613C249.424 9.5613 250.712 9.82023 251.912 10.3381C253.125 10.856 254.186 11.5759 255.095 12.498C256.004 13.4074 256.718 14.462 257.236 15.662C257.754 16.8619 258.013 18.1502 258.013 19.527C258.013 20.9037 257.754 22.1984 257.236 23.411C256.718 24.6235 256.004 25.6908 255.095 26.6129C254.186 27.5223 253.125 28.2359 251.912 28.7538C250.712 29.2716 249.424 29.5306 248.047 29.5306C246.708 29.5306 245.546 29.2274 244.561 28.6212C243.576 28.0023 242.767 27.2128 242.136 26.2529V38.4732ZM248.009 13.3695C246.91 13.3695 245.944 13.6474 245.11 14.2031C244.277 14.7589 243.626 15.5041 243.159 16.4388C242.692 17.3608 242.458 18.3902 242.458 19.527C242.458 20.6638 242.692 21.6995 243.159 22.6342C243.626 23.5688 244.277 24.3141 245.11 24.8698C245.944 25.4256 246.91 25.7034 248.009 25.7034C249.095 25.7034 250.093 25.4319 251.003 24.8888C251.912 24.333 252.638 23.5878 253.181 22.6531C253.725 21.7184 253.996 20.6764 253.996 19.527C253.996 18.4029 253.725 17.3734 253.181 16.4388C252.651 15.5041 251.931 14.7589 251.022 14.2031C250.112 13.6474 249.108 13.3695 248.009 13.3695Z" fill="white"/>
<path d="M262.357 29.0001V0.580811H266.298V29.0001H262.357Z" fill="white"/>
<path d="M272.347 10.0539H276.288V29.0001H272.347V10.0539ZM274.355 7.30671C273.749 7.30671 273.244 7.11093 272.84 6.71938C272.435 6.32782 272.233 5.83522 272.233 5.24157C272.233 4.66056 272.435 4.17427 272.84 3.78272C273.244 3.37853 273.743 3.17644 274.336 3.17644C274.917 3.17644 275.41 3.37853 275.814 3.78272C276.218 4.17427 276.42 4.66056 276.42 5.24157C276.42 5.83522 276.218 6.32782 275.814 6.71938C275.423 7.11093 274.936 7.30671 274.355 7.30671Z" fill="white"/>
<path d="M299.24 17.1208V29.0001H295.299V18.0871C295.299 17.2408 295.091 16.4703 294.674 15.7757C294.27 15.081 293.721 14.5315 293.026 14.1273C292.344 13.7105 291.573 13.5021 290.714 13.5021C289.881 13.5021 289.117 13.7105 288.422 14.1273C287.727 14.5315 287.171 15.081 286.755 15.7757C286.338 16.4703 286.129 17.2408 286.129 18.0871V29.0001H282.189V10.0539H286.129V12.0622C286.786 11.2791 287.595 10.6602 288.555 10.2055C289.514 9.75076 290.55 9.52341 291.662 9.52341C293.064 9.52341 294.339 9.86444 295.489 10.5465C296.638 11.2286 297.548 12.1443 298.217 13.2937C298.899 14.4431 299.24 15.7188 299.24 17.1208Z" fill="white"/>
<path d="M318.586 10.0539H322.527V29.4927C322.527 30.7937 322.249 31.9936 321.693 33.0925C321.15 34.1913 320.411 35.1387 319.476 35.9344C318.542 36.7428 317.468 37.368 316.255 37.8101C315.055 38.2521 313.799 38.4732 312.485 38.4732C311.159 38.4732 309.883 38.189 308.658 37.6206C307.433 37.0648 306.353 36.307 305.418 35.3471C304.496 34.3871 303.808 33.3009 303.353 32.0883L306.972 30.4589C307.224 31.2421 307.628 31.9367 308.184 32.543C308.753 33.1493 309.409 33.6293 310.155 33.9829C310.912 34.3366 311.689 34.5134 312.485 34.5134C313.268 34.5134 314.02 34.3871 314.74 34.1345C315.472 33.8945 316.123 33.5535 316.691 33.1114C317.272 32.6693 317.733 32.1388 318.074 31.5199C318.415 30.901 318.586 30.2253 318.586 29.4927V26.2908C317.967 27.2507 317.171 28.0275 316.198 28.6212C315.226 29.2022 314.095 29.4927 312.807 29.4927C311.468 29.4927 310.205 29.2338 309.018 28.7159C307.831 28.198 306.789 27.4844 305.892 26.575C304.995 25.6529 304.294 24.5919 303.789 23.392C303.284 22.1921 303.031 20.9037 303.031 19.527C303.031 18.1502 303.284 16.8619 303.789 15.662C304.294 14.4494 304.995 13.3884 305.892 12.479C306.789 11.557 307.831 10.837 309.018 10.3191C310.205 9.80129 311.468 9.54236 312.807 9.54236C314.095 9.54236 315.226 9.83918 316.198 10.4328C317.171 11.0138 317.967 11.7906 318.586 12.7632V10.0539ZM312.845 25.6845C313.944 25.6845 314.904 25.4066 315.725 24.8509C316.546 24.2825 317.184 23.531 317.638 22.5963C318.093 21.6616 318.32 20.6385 318.32 19.527C318.32 18.3902 318.087 17.3608 317.619 16.4388C317.165 15.5041 316.527 14.7589 315.706 14.2031C314.885 13.6347 313.931 13.3505 312.845 13.3505C311.784 13.3505 310.811 13.6284 309.927 14.1842C309.056 14.7399 308.361 15.4851 307.843 16.4198C307.325 17.3545 307.066 18.3902 307.066 19.527C307.066 20.6638 307.325 21.6995 307.843 22.6342C308.374 23.5688 309.075 24.3141 309.946 24.8698C310.83 25.4129 311.797 25.6845 312.845 25.6845Z" fill="white"/>
<path d="M334.273 29.3601C333.275 29.2969 332.302 29.0948 331.355 28.7538C330.408 28.4128 329.574 27.9517 328.854 27.3707C328.147 26.7771 327.616 26.0824 327.263 25.2866L330.616 23.8467C330.78 24.1878 331.065 24.5225 331.469 24.8509C331.886 25.1793 332.372 25.4508 332.928 25.6656C333.483 25.8677 334.064 25.9687 334.671 25.9687C335.264 25.9687 335.814 25.8866 336.319 25.7224C336.837 25.5456 337.26 25.2803 337.588 24.9267C337.917 24.573 338.081 24.1499 338.081 23.6573C338.081 23.1015 337.892 22.6721 337.513 22.3689C337.146 22.0532 336.685 21.8132 336.13 21.649C335.574 21.4848 335.018 21.3269 334.462 21.1753C333.225 20.8974 332.088 20.5185 331.052 20.0385C330.029 19.5459 329.214 18.9207 328.608 18.1629C328.002 17.3924 327.699 16.4514 327.699 15.3399C327.699 14.1273 328.027 13.079 328.684 12.1948C329.341 11.298 330.199 10.6097 331.26 10.1297C332.334 9.64972 333.477 9.40973 334.69 9.40973C336.205 9.40973 337.595 9.73182 338.858 10.376C340.121 11.0202 341.087 11.9043 341.757 13.0285L338.63 14.8852C338.441 14.5063 338.157 14.1652 337.778 13.8621C337.399 13.5589 336.97 13.319 336.49 13.1421C336.01 12.9527 335.511 12.8453 334.993 12.82C334.349 12.7948 333.749 12.8706 333.193 13.0474C332.65 13.2116 332.214 13.4768 331.886 13.8431C331.557 14.2094 331.393 14.6768 331.393 15.2452C331.393 15.8009 331.589 16.2177 331.98 16.4956C332.372 16.7609 332.865 16.9756 333.458 17.1398C334.064 17.304 334.683 17.4871 335.315 17.6892C336.439 18.0429 337.494 18.4786 338.479 18.9965C339.464 19.5017 340.26 20.127 340.866 20.8722C341.472 21.6174 341.763 22.5268 341.738 23.6004C341.738 24.7877 341.378 25.8298 340.658 26.7265C339.95 27.6233 339.028 28.3054 337.892 28.7727C336.755 29.2401 335.549 29.4358 334.273 29.3601Z" fill="white"/>
<path d="M154.969 98.3509V37.0488H175.242C179.475 37.0488 183.445 37.8516 187.153 39.4571C190.86 41.0335 194.115 43.2374 196.917 46.069C199.72 48.8714 201.909 52.1262 203.485 55.8335C205.091 59.5117 205.894 63.4671 205.894 67.6999C205.894 71.9327 205.091 75.9027 203.485 79.61C201.909 83.2881 199.72 86.543 196.917 89.3746C194.115 92.1769 190.86 94.3809 187.153 95.9864C183.445 97.5628 179.475 98.3509 175.242 98.3509H154.969ZM164.077 89.2432H175.242C178.22 89.2432 180.993 88.6886 183.562 87.5793C186.16 86.47 188.452 84.9229 190.437 82.9378C192.451 80.9528 194.013 78.6613 195.122 76.0632C196.231 73.4652 196.786 70.6774 196.786 67.6999C196.786 64.7224 196.231 61.9346 195.122 59.3365C194.013 56.7385 192.451 54.447 190.437 52.4619C188.452 50.4769 186.16 48.9298 183.562 47.8205C180.993 46.7112 178.22 46.1566 175.242 46.1566H164.077V89.2432Z" fill="white"/>
<path d="M233.714 99.4894C229.686 99.4894 226.008 98.4531 222.68 96.3805C219.381 94.3079 216.739 91.5347 214.754 88.0609C212.798 84.558 211.821 80.6901 211.821 76.4573C211.821 73.2463 212.39 70.2541 213.528 67.4809C214.667 64.6786 216.228 62.2265 218.213 60.1247C220.228 57.9937 222.563 56.3298 225.219 55.133C227.876 53.9361 230.707 53.3377 233.714 53.3377C237.071 53.3377 240.151 54.0383 242.953 55.4395C245.756 56.8115 248.149 58.7235 250.134 61.1756C252.119 63.5985 253.579 66.4009 254.513 69.5827C255.447 72.7354 255.725 76.0924 255.345 79.6538H221.585C221.965 81.668 222.694 83.4925 223.774 85.1272C224.884 86.7327 226.285 88.0026 227.978 88.9367C229.7 89.8708 231.612 90.3525 233.714 90.3817C235.933 90.3817 237.947 89.827 239.757 88.7178C241.596 87.6085 243.099 86.0759 244.267 84.1201L253.506 86.2657C251.754 90.1481 249.113 93.33 245.581 95.8113C242.048 98.2634 238.093 99.4894 233.714 99.4894ZM221.279 72.6916H246.15C245.858 70.5898 245.113 68.6924 243.917 66.9993C242.749 65.277 241.275 63.9196 239.494 62.9271C237.743 61.9054 235.816 61.3945 233.714 61.3945C231.642 61.3945 229.715 61.8908 227.934 62.8833C226.183 63.8758 224.723 65.2332 223.556 66.9555C222.417 68.6486 221.658 70.5607 221.279 72.6916Z" fill="white"/>
<path d="M287.342 98.3509H275.651L259.668 54.4761H269.389L281.474 87.842L293.603 54.4761H303.28L287.342 98.3509Z" fill="white"/>
<path d="M324.648 99.1829C322.342 99.0369 320.094 98.5699 317.905 97.7817C315.715 96.9935 313.789 95.9281 312.125 94.5852C310.49 93.2132 309.264 91.6077 308.447 89.7686L316.197 86.4408C316.576 87.229 317.233 88.0026 318.167 88.7615C319.131 89.5205 320.255 90.1481 321.539 90.6444C322.823 91.1115 324.166 91.345 325.567 91.345C326.939 91.345 328.209 91.1552 329.377 90.7758C330.574 90.3671 331.552 89.7541 332.311 88.9367C333.07 88.1193 333.449 87.1414 333.449 86.0029C333.449 84.7185 333.011 83.726 332.136 83.0254C331.289 82.2956 330.223 81.741 328.939 81.3615C327.655 80.982 326.37 80.6171 325.086 80.2668C322.225 79.6246 319.598 78.7489 317.204 77.6396C314.84 76.5011 312.957 75.0561 311.556 73.3047C310.154 71.524 309.454 69.3492 309.454 66.7804C309.454 63.978 310.213 61.5551 311.731 59.5117C313.249 57.4391 315.234 55.8481 317.686 54.7389C320.167 53.6296 322.809 53.075 325.611 53.075C329.114 53.075 332.325 53.8193 335.244 55.3081C338.164 56.7969 340.397 58.8403 341.944 61.4383L334.719 65.7295C334.281 64.8537 333.624 64.0655 332.749 63.365C331.873 62.6644 330.88 62.1097 329.771 61.701C328.662 61.2632 327.509 61.015 326.312 60.9567C324.823 60.8983 323.436 61.0734 322.152 61.4821C320.897 61.8616 319.89 62.4746 319.131 63.3212C318.372 64.1677 317.992 65.2478 317.992 66.5614C317.992 67.8458 318.445 68.8092 319.35 69.4514C320.255 70.0644 321.393 70.5606 322.765 70.9401C324.166 71.3196 325.597 71.7429 327.056 72.21C329.654 73.0273 332.092 74.0344 334.369 75.2313C336.646 76.3989 338.485 77.8439 339.886 79.5662C341.287 81.2885 341.958 83.3903 341.9 85.8716C341.9 88.6156 341.068 91.0239 339.404 93.0965C337.769 95.1691 335.639 96.7454 333.011 97.8255C330.384 98.9056 327.596 99.358 324.648 99.1829Z" fill="white"/>
<path d="M36.8271 51.6719C36.8271 48.4417 34.1217 45.9084 30.8916 45.9084C27.6614 45.9084 24.956 48.4417 24.956 51.6719V67.1464L26.2544 67.1729L26.36 67.1749L26.6585 67.1803C26.9162 67.1847 27.2861 67.1907 27.7358 67.1966C28.6348 67.2084 29.8545 67.2202 31.1353 67.2202C32.4165 67.2202 33.515 67.2084 34.2938 67.1965C34.6833 67.1906 34.993 67.1847 35.2057 67.1802L35.3611 67.1769L35.4501 67.1748L35.5365 67.1727L36.8271 67.1394V51.6719Z" fill="white"/>
<path d="M90.3109 52.5942C90.3109 49.3641 87.6055 46.8308 84.3753 46.8308C81.1452 46.8308 78.4397 49.3641 78.4397 52.5942V68.0955H90.3109V52.5942Z" fill="white"/>
<path fill-rule="evenodd" clip-rule="evenodd" d="M71.6961 2.74065C71.6961 6.03967 71.7136 17.269 71.7136 17.269C71.7136 24.6217 65.7235 30.5822 58.3343 30.5822C50.9452 30.5822 44.9551 24.6217 44.9551 17.269V3.13481C44.9551 2.73145 44.8585 2.40916 44.6835 2.16001C43.4586 0.415909 38.3951 2.2551 35.7725 4.94958C16.4306 24.8215 5.14882 38.5851 2.07156 48.1598C-3.35397 65.041 -2.18113 103.023 57.3577 103.023C117.469 103.023 118.653 65.041 113.175 48.1598C110.162 38.8736 98.7056 23.2782 80.8194 4.94958C77.8297 1.88596 71.6961 -0.558359 71.6961 2.74065ZM89.9014 30.2451C87.8286 27.656 85.5184 24.7704 83.0471 21.9702C82.3179 21.144 81.5747 20.3251 80.8194 19.5236C80.6585 20.5908 80.4258 21.6448 80.1263 22.6782C77.3359 32.3048 68.7426 40.1403 58.3343 40.1403C47.4263 40.1403 38.293 32.5793 35.9388 22.437C35.6879 21.3563 35.514 20.2463 35.4232 19.113C34.6197 19.9661 33.8361 20.8042 33.0724 21.6275C29.0997 25.9103 25.6631 29.794 22.738 33.3286C15.779 41.738 12.4119 47.3649 11.2207 51.0713C9.02631 57.8989 8.42626 68.5129 13.5712 76.9736C18.2968 84.7448 29.6225 93.4647 57.3577 93.4647C85.4176 93.4647 96.8895 84.7182 101.666 76.9389C106.85 68.4949 106.245 57.9087 104.035 51.0967C102.868 47.5013 99.6113 42.0542 92.8981 33.9495C91.9689 32.8278 90.9662 31.5752 89.9014 30.2451Z" fill="white"/>
</svg>
