<svg width="472" height="131" viewBox="0 0 472 131" fill="none" xmlns="http://www.w3.org/2000/svg">
<path fill-rule="evenodd" clip-rule="evenodd" d="M17 7C17 8.65686 18.3431 10 20 10H21V38H20C18.3431 38 17 39.3431 17 41V43C17 44.6569 18.3431 46 20 46H21V68H8V67C8 65.3431 6.65686 64 5 64H3C1.34314 64 0 65.3431 0 67V79C0 80.6569 1.34314 82 3 82H5C6.65686 82 8 80.6569 8 79V78H21V101H20C18.3431 101 17 102.343 17 104V106C17 107.657 18.3431 109 20 109H32C33.6569 109 35 107.657 35 106V104C35 102.343 33.6569 101 32 101H31V77.9853C31.5113 77.9871 32.03 77.9893 32.5555 77.9915H32.5634C42.7578 78.0351 55.4985 78.0894 66.0177 75.3323C71.9958 73.7654 77.7762 71.1754 82.088 66.7328C86.5263 62.1598 89 56.0435 89 48.3253C89 40.677 86.6701 34.7043 82.7661 30.2337C78.9442 25.857 73.9404 23.2908 69.1559 21.7519C62.5047 19.6126 55.1075 19.2271 51 19.1264V18C51 16.3431 49.6569 15 48 15H46C44.3431 15 43 16.3431 43 18V19H31V10H32C33.6569 10 35 8.65686 35 7V5C35 3.34314 33.6569 2 32 2H20C18.3431 2 17 3.34314 17 5V7ZM31 29H43V30C43 31.6569 44.3431 33 46 33H48C49.6569 33 51 31.6569 51 30V29.1651C54.9936 29.2615 60.5005 29.4726 66.0941 31.2716C69.8096 32.4667 72.9933 34.2456 75.2339 36.8113C77.3924 39.2831 79 42.8502 79 48.3253C79 53.7302 77.3487 57.2576 74.912 59.7682C72.3488 62.4092 68.5042 64.3428 63.4823 65.6591C54.3278 68.0585 42.9951 68.0222 32.5763 67.9889L32.5029 67.9887C31.9997 67.9871 31.4986 67.9855 31 67.9842V46H32C33.6569 46 35 44.6569 35 43V41C35 39.3431 33.6569 38 32 38H31V29Z" fill="white"/>
<path d="M139.28 109V47.4H160.488C163.803 47.4 166.795 48.2213 169.464 49.864C172.163 51.5067 174.304 53.7213 175.888 56.508C177.501 59.2947 178.308 62.3747 178.308 65.748C178.308 69.18 177.487 72.2893 175.844 75.076C174.231 77.8333 172.075 80.0333 169.376 81.676C166.677 83.3187 163.715 84.14 160.488 84.14H148.432V109H139.28ZM148.432 74.988H159.564C161.324 74.988 162.923 74.548 164.36 73.668C165.827 72.788 166.985 71.6147 167.836 70.148C168.716 68.6813 169.156 67.024 169.156 65.176C169.156 63.328 168.716 61.6707 167.836 60.204C166.985 58.708 165.827 57.5347 164.36 56.684C162.923 55.804 161.324 55.364 159.564 55.364H148.432V74.988Z" fill="white"/>
<path d="M185.514 65H194.666V109H185.514V65ZM190.178 58.62C188.77 58.62 187.597 58.1653 186.658 57.256C185.72 56.3467 185.25 55.2027 185.25 53.824C185.25 52.4747 185.72 51.3453 186.658 50.436C187.597 49.4973 188.756 49.028 190.134 49.028C191.484 49.028 192.628 49.4973 193.566 50.436C194.505 51.3453 194.974 52.4747 194.974 53.824C194.974 55.2027 194.505 56.3467 193.566 57.256C192.657 58.1653 191.528 58.62 190.178 58.62Z" fill="white"/>
<path d="M213.745 131H204.593V65H213.745V71.468C215.211 69.2093 217.089 67.376 219.377 65.968C221.665 64.56 224.363 63.856 227.473 63.856C230.67 63.856 233.662 64.4573 236.449 65.66C239.265 66.8627 241.729 68.5347 243.841 70.676C245.953 72.788 247.61 75.2373 248.813 78.024C250.015 80.8107 250.617 83.8027 250.617 87C250.617 90.1973 250.015 93.204 248.813 96.02C247.61 98.836 245.953 101.315 243.841 103.456C241.729 105.568 239.265 107.225 236.449 108.428C233.662 109.631 230.67 110.232 227.473 110.232C224.363 110.232 221.665 109.528 219.377 108.12C217.089 106.683 215.211 104.849 213.745 102.62V131ZM227.385 72.7C224.833 72.7 222.589 73.3453 220.653 74.636C218.717 75.9267 217.206 77.6573 216.121 79.828C215.035 81.9693 214.493 84.36 214.493 87C214.493 89.64 215.035 92.0453 216.121 94.216C217.206 96.3867 218.717 98.1173 220.653 99.408C222.589 100.699 224.833 101.344 227.385 101.344C229.907 101.344 232.225 100.713 234.337 99.452C236.449 98.1613 238.135 96.4307 239.397 94.26C240.658 92.0893 241.289 89.6693 241.289 87C241.289 84.3893 240.658 81.9987 239.397 79.828C238.165 77.6573 236.493 75.9267 234.381 74.636C232.269 73.3453 229.937 72.7 227.385 72.7Z" fill="white"/>
<path d="M277.062 110.144C273.014 110.144 269.318 109.103 265.974 107.02C262.659 104.937 260.005 102.151 258.01 98.66C256.045 95.14 255.062 91.2533 255.062 87C255.062 83.7733 255.634 80.7667 256.778 77.98C257.922 75.164 259.491 72.7 261.486 70.588C263.51 68.4467 265.857 66.7747 268.526 65.572C271.195 64.3693 274.041 63.768 277.062 63.768C280.435 63.768 283.53 64.472 286.346 65.88C289.162 67.2587 291.567 69.18 293.562 71.644C295.557 74.0787 297.023 76.8947 297.962 80.092C298.901 83.26 299.179 86.6333 298.798 90.212H264.874C265.255 92.236 265.989 94.0693 267.074 95.712C268.189 97.3253 269.597 98.6013 271.298 99.54C273.029 100.479 274.95 100.963 277.062 100.992C279.291 100.992 281.315 100.435 283.134 99.32C284.982 98.2053 286.493 96.6653 287.666 94.7L296.95 96.856C295.19 100.757 292.535 103.955 288.986 106.448C285.437 108.912 281.462 110.144 277.062 110.144ZM264.566 83.216H289.558C289.265 81.104 288.517 79.1973 287.314 77.496C286.141 75.7653 284.659 74.4013 282.87 73.404C281.11 72.3773 279.174 71.864 277.062 71.864C274.979 71.864 273.043 72.3627 271.254 73.36C269.494 74.3573 268.027 75.7213 266.854 77.452C265.71 79.1533 264.947 81.0747 264.566 83.216Z" fill="white"/>
<path d="M305.483 109V43H314.635V109H305.483Z" fill="white"/>
<path d="M325.163 65H334.315V109H325.163V65ZM329.827 58.62C328.419 58.62 327.245 58.1653 326.307 57.256C325.368 56.3467 324.899 55.2027 324.899 53.824C324.899 52.4747 325.368 51.3453 326.307 50.436C327.245 49.4973 328.404 49.028 329.783 49.028C331.132 49.028 332.276 49.4973 333.215 50.436C334.154 51.3453 334.623 52.4747 334.623 53.824C334.623 55.2027 334.154 56.3467 333.215 57.256C332.306 58.1653 331.176 58.62 329.827 58.62Z" fill="white"/>
<path d="M384.099 81.412V109H374.947V83.656C374.947 81.6907 374.463 79.9013 373.495 78.288C372.556 76.6747 371.28 75.3987 369.667 74.46C368.083 73.492 366.293 73.008 364.299 73.008C362.363 73.008 360.588 73.492 358.975 74.46C357.361 75.3987 356.071 76.6747 355.103 78.288C354.135 79.9013 353.651 81.6907 353.651 83.656V109H344.499V65H353.651V69.664C355.176 67.8453 357.053 66.408 359.283 65.352C361.512 64.296 363.917 63.768 366.499 63.768C369.755 63.768 372.717 64.56 375.387 66.144C378.056 67.728 380.168 69.8547 381.723 72.524C383.307 75.1933 384.099 78.156 384.099 81.412Z" fill="white"/>
<path d="M411.382 110.144C407.334 110.144 403.638 109.103 400.294 107.02C396.98 104.937 394.325 102.151 392.33 98.66C390.365 95.14 389.382 91.2533 389.382 87C389.382 83.7733 389.954 80.7667 391.098 77.98C392.242 75.164 393.812 72.7 395.806 70.588C397.83 68.4467 400.177 66.7747 402.846 65.572C405.516 64.3693 408.361 63.768 411.382 63.768C414.756 63.768 417.85 64.472 420.666 65.88C423.482 67.2587 425.888 69.18 427.882 71.644C429.877 74.0787 431.344 76.8947 432.282 80.092C433.221 83.26 433.5 86.6333 433.118 90.212H399.194C399.576 92.236 400.309 94.0693 401.394 95.712C402.509 97.3253 403.917 98.6013 405.618 99.54C407.349 100.479 409.27 100.963 411.382 100.992C413.612 100.992 415.636 100.435 417.454 99.32C419.302 98.2053 420.813 96.6653 421.986 94.7L431.27 96.856C429.51 100.757 426.856 103.955 423.306 106.448C419.757 108.912 415.782 110.144 411.382 110.144ZM398.886 83.216H423.878C423.585 81.104 422.837 79.1973 421.634 77.496C420.461 75.7653 418.98 74.4013 417.19 73.404C415.43 72.3773 413.494 71.864 411.382 71.864C409.3 71.864 407.364 72.3627 405.574 73.36C403.814 74.3573 402.348 75.7213 401.174 77.452C400.03 79.1533 399.268 81.0747 398.886 83.216Z" fill="white"/>
<path d="M453.777 109.836C451.46 109.689 449.201 109.22 447.001 108.428C444.801 107.636 442.865 106.565 441.193 105.216C439.55 103.837 438.318 102.224 437.497 100.376L445.285 97.032C445.666 97.824 446.326 98.6013 447.265 99.364C448.233 100.127 449.362 100.757 450.653 101.256C451.944 101.725 453.293 101.96 454.701 101.96C456.08 101.96 457.356 101.769 458.529 101.388C459.732 100.977 460.714 100.361 461.477 99.54C462.24 98.7187 462.621 97.736 462.621 96.592C462.621 95.3013 462.181 94.304 461.301 93.6C460.45 92.8667 459.38 92.3093 458.089 91.928C456.798 91.5467 455.508 91.18 454.217 90.828C451.342 90.1827 448.702 89.3027 446.297 88.188C443.921 87.044 442.029 85.592 440.621 83.832C439.213 82.0427 438.509 79.8573 438.509 77.276C438.509 74.46 439.272 72.0253 440.797 69.972C442.322 67.8893 444.317 66.2907 446.781 65.176C449.274 64.0613 451.929 63.504 454.745 63.504C458.265 63.504 461.492 64.252 464.425 65.748C467.358 67.244 469.602 69.2973 471.157 71.908L463.897 76.22C463.457 75.34 462.797 74.548 461.917 73.844C461.037 73.14 460.04 72.5827 458.925 72.172C457.81 71.732 456.652 71.4827 455.449 71.424C453.953 71.3653 452.56 71.5413 451.269 71.952C450.008 72.3333 448.996 72.9493 448.233 73.8C447.47 74.6507 447.089 75.736 447.089 77.056C447.089 78.3467 447.544 79.3147 448.453 79.96C449.362 80.576 450.506 81.0747 451.885 81.456C453.293 81.8373 454.73 82.2627 456.197 82.732C458.808 83.5533 461.257 84.5653 463.545 85.768C465.833 86.9413 467.681 88.3933 469.089 90.124C470.497 91.8547 471.172 93.9667 471.113 96.46C471.113 99.2173 470.277 101.637 468.605 103.72C466.962 105.803 464.821 107.387 462.181 108.472C459.541 109.557 456.74 110.012 453.777 109.836Z" fill="white"/>
<path d="M139.4 30V2H148.66C150.593 2 152.407 2.36667 154.1 3.1C155.793 3.82 157.28 4.82667 158.56 6.12C159.84 7.4 160.84 8.88667 161.56 10.58C162.293 12.26 162.66 14.0667 162.66 16C162.66 17.9333 162.293 19.7467 161.56 21.44C160.84 23.12 159.84 24.6067 158.56 25.9C157.28 27.18 155.793 28.1867 154.1 28.92C152.407 29.64 150.593 30 148.66 30H139.4ZM143.56 25.84H148.66C150.02 25.84 151.287 25.5867 152.46 25.08C153.647 24.5733 154.693 23.8667 155.6 22.96C156.52 22.0533 157.233 21.0067 157.74 19.82C158.247 18.6333 158.5 17.36 158.5 16C158.5 14.64 158.247 13.3667 157.74 12.18C157.233 10.9933 156.52 9.94667 155.6 9.04C154.693 8.13333 153.647 7.42667 152.46 6.92C151.287 6.41333 150.02 6.16 148.66 6.16H143.56V25.84Z" fill="white"/>
<path d="M166.567 22.5V10H170.727V21.48C170.727 22.3733 170.947 23.1867 171.387 23.92C171.827 24.6533 172.414 25.24 173.147 25.68C173.88 26.1067 174.687 26.32 175.567 26.32C176.46 26.32 177.267 26.1067 177.987 25.68C178.72 25.24 179.3 24.6533 179.727 23.92C180.167 23.1867 180.387 22.3733 180.387 21.48V10H184.547L184.567 30H180.407L180.387 27.84C179.707 28.6667 178.86 29.32 177.847 29.8C176.834 30.28 175.747 30.52 174.587 30.52C173.107 30.52 171.76 30.16 170.547 29.44C169.334 28.72 168.367 27.7533 167.647 26.54C166.927 25.3267 166.567 23.98 166.567 22.5Z" fill="white"/>
<path d="M190.178 30V10H194.338V12.12C195.031 11.2933 195.878 10.64 196.878 10.16C197.891 9.68 198.985 9.44 200.158 9.44C201.585 9.44 202.898 9.78667 204.098 10.48C205.298 11.16 206.251 12.0667 206.958 13.2C207.665 12.0667 208.605 11.16 209.778 10.48C210.965 9.78667 212.271 9.44 213.698 9.44C215.178 9.44 216.525 9.8 217.738 10.52C218.951 11.24 219.918 12.2067 220.638 13.42C221.358 14.6333 221.718 15.98 221.718 17.46V30H217.558V18.52C217.558 17.64 217.345 16.8333 216.918 16.1C216.491 15.3667 215.918 14.7733 215.198 14.32C214.478 13.8667 213.678 13.64 212.798 13.64C211.918 13.64 211.118 13.8533 210.398 14.28C209.678 14.7067 209.105 15.2867 208.678 16.02C208.251 16.7533 208.038 17.5867 208.038 18.52V30H203.878V18.52C203.878 17.5867 203.665 16.7533 203.238 16.02C202.811 15.2867 202.231 14.7067 201.498 14.28C200.778 13.8533 199.978 13.64 199.098 13.64C198.231 13.64 197.431 13.8667 196.698 14.32C195.978 14.7733 195.405 15.3667 194.978 16.1C194.551 16.8333 194.338 17.64 194.338 18.52V30H190.178Z" fill="white"/>
<path d="M231.485 40H227.325V10H231.485V12.94C232.152 11.9133 233.005 11.08 234.045 10.44C235.085 9.8 236.312 9.48 237.725 9.48C239.178 9.48 240.538 9.75333 241.805 10.3C243.085 10.8467 244.205 11.6067 245.165 12.58C246.125 13.54 246.878 14.6533 247.425 15.92C247.972 17.1867 248.245 18.5467 248.245 20C248.245 21.4533 247.972 22.82 247.425 24.1C246.878 25.38 246.125 26.5067 245.165 27.48C244.205 28.44 243.085 29.1933 241.805 29.74C240.538 30.2867 239.178 30.56 237.725 30.56C236.312 30.56 235.085 30.24 234.045 29.6C233.005 28.9467 232.152 28.1133 231.485 27.1V40ZM237.685 13.5C236.525 13.5 235.505 13.7933 234.625 14.38C233.745 14.9667 233.058 15.7533 232.565 16.74C232.072 17.7133 231.825 18.8 231.825 20C231.825 21.2 232.072 22.2933 232.565 23.28C233.058 24.2667 233.745 25.0533 234.625 25.64C235.505 26.2267 236.525 26.52 237.685 26.52C238.832 26.52 239.885 26.2333 240.845 25.66C241.805 25.0733 242.572 24.2867 243.145 23.3C243.718 22.3133 244.005 21.2133 244.005 20C244.005 18.8133 243.718 17.7267 243.145 16.74C242.585 15.7533 241.825 14.9667 240.865 14.38C239.905 13.7933 238.845 13.5 237.685 13.5Z" fill="white"/>
<path d="M252.831 30V0H256.991V30H252.831Z" fill="white"/>
<path d="M263.376 10H267.536V30H263.376V10ZM265.496 7.1C264.856 7.1 264.323 6.89333 263.896 6.48C263.47 6.06667 263.256 5.54667 263.256 4.92C263.256 4.30667 263.47 3.79333 263.896 3.38C264.323 2.95333 264.85 2.74 265.476 2.74C266.09 2.74 266.61 2.95333 267.036 3.38C267.463 3.79333 267.676 4.30667 267.676 4.92C267.676 5.54667 267.463 6.06667 267.036 6.48C266.623 6.89333 266.11 7.1 265.496 7.1Z" fill="white"/>
<path d="M291.766 17.46V30H287.606V18.48C287.606 17.5867 287.386 16.7733 286.946 16.04C286.519 15.3067 285.939 14.7267 285.206 14.3C284.486 13.86 283.672 13.64 282.766 13.64C281.886 13.64 281.079 13.86 280.346 14.3C279.612 14.7267 279.026 15.3067 278.586 16.04C278.146 16.7733 277.926 17.5867 277.926 18.48V30H273.766V10H277.926V12.12C278.619 11.2933 279.472 10.64 280.486 10.16C281.499 9.68 282.592 9.44 283.766 9.44C285.246 9.44 286.592 9.8 287.806 10.52C289.019 11.24 289.979 12.2067 290.686 13.42C291.406 14.6333 291.766 15.98 291.766 17.46Z" fill="white"/>
<path d="M312.187 10H316.347V30.52C316.347 31.8933 316.054 33.16 315.467 34.32C314.894 35.48 314.114 36.48 313.127 37.32C312.14 38.1733 311.007 38.8333 309.727 39.3C308.46 39.7667 307.134 40 305.747 40C304.347 40 303 39.7 301.707 39.1C300.414 38.5133 299.274 37.7133 298.287 36.7C297.314 35.6867 296.587 34.54 296.107 33.26L299.927 31.54C300.194 32.3667 300.62 33.1 301.207 33.74C301.807 34.38 302.5 34.8867 303.287 35.26C304.087 35.6333 304.907 35.82 305.747 35.82C306.574 35.82 307.367 35.6867 308.127 35.42C308.9 35.1667 309.587 34.8067 310.187 34.34C310.8 33.8733 311.287 33.3133 311.647 32.66C312.007 32.0067 312.187 31.2933 312.187 30.52V27.14C311.534 28.1533 310.694 28.9733 309.667 29.6C308.64 30.2133 307.447 30.52 306.087 30.52C304.674 30.52 303.34 30.2467 302.087 29.7C300.834 29.1533 299.734 28.4 298.787 27.44C297.84 26.4667 297.1 25.3467 296.567 24.08C296.034 22.8133 295.767 21.4533 295.767 20C295.767 18.5467 296.034 17.1867 296.567 15.92C297.1 14.64 297.84 13.52 298.787 12.56C299.734 11.5867 300.834 10.8267 302.087 10.28C303.34 9.73333 304.674 9.46 306.087 9.46C307.447 9.46 308.64 9.77333 309.667 10.4C310.694 11.0133 311.534 11.8333 312.187 12.86V10ZM306.127 26.5C307.287 26.5 308.3 26.2067 309.167 25.62C310.034 25.02 310.707 24.2267 311.187 23.24C311.667 22.2533 311.907 21.1733 311.907 20C311.907 18.8 311.66 17.7133 311.167 16.74C310.687 15.7533 310.014 14.9667 309.147 14.38C308.28 13.78 307.274 13.48 306.127 13.48C305.007 13.48 303.98 13.7733 303.047 14.36C302.127 14.9467 301.394 15.7333 300.847 16.72C300.3 17.7067 300.027 18.8 300.027 20C300.027 21.2 300.3 22.2933 300.847 23.28C301.407 24.2667 302.147 25.0533 303.067 25.64C304 26.2133 305.02 26.5 306.127 26.5Z" fill="white"/>
<path d="M328.747 30.38C327.693 30.3133 326.667 30.1 325.667 29.74C324.667 29.38 323.787 28.8933 323.027 28.28C322.28 27.6533 321.72 26.92 321.347 26.08L324.887 24.56C325.06 24.92 325.36 25.2733 325.787 25.62C326.227 25.9667 326.74 26.2533 327.327 26.48C327.913 26.6933 328.527 26.8 329.167 26.8C329.793 26.8 330.373 26.7133 330.907 26.54C331.453 26.3533 331.9 26.0733 332.247 25.7C332.593 25.3267 332.767 24.88 332.767 24.36C332.767 23.7733 332.567 23.32 332.167 23C331.78 22.6667 331.293 22.4133 330.707 22.24C330.12 22.0667 329.533 21.9 328.947 21.74C327.64 21.4467 326.44 21.0467 325.347 20.54C324.267 20.02 323.407 19.36 322.767 18.56C322.127 17.7467 321.807 16.7533 321.807 15.58C321.807 14.3 322.153 13.1933 322.847 12.26C323.54 11.3133 324.447 10.5867 325.567 10.08C326.7 9.57333 327.907 9.32 329.187 9.32C330.787 9.32 332.253 9.66 333.587 10.34C334.92 11.02 335.94 11.9533 336.647 13.14L333.347 15.1C333.147 14.7 332.847 14.34 332.447 14.02C332.047 13.7 331.593 13.4467 331.087 13.26C330.58 13.06 330.053 12.9467 329.507 12.92C328.827 12.8933 328.193 12.9733 327.607 13.16C327.033 13.3333 326.573 13.6133 326.227 14C325.88 14.3867 325.707 14.88 325.707 15.48C325.707 16.0667 325.913 16.5067 326.327 16.8C326.74 17.08 327.26 17.3067 327.887 17.48C328.527 17.6533 329.18 17.8467 329.847 18.06C331.033 18.4333 332.147 18.8933 333.187 19.44C334.227 19.9733 335.067 20.6333 335.707 21.42C336.347 22.2067 336.653 23.1667 336.627 24.3C336.627 25.5533 336.247 26.6533 335.487 27.6C334.74 28.5467 333.767 29.2667 332.567 29.76C331.367 30.2533 330.093 30.46 328.747 30.38Z" fill="white"/>
<path d="M352.861 30V2H362.121C364.054 2 365.868 2.36667 367.561 3.1C369.254 3.82 370.741 4.82667 372.021 6.12C373.301 7.4 374.301 8.88667 375.021 10.58C375.754 12.26 376.121 14.0667 376.121 16C376.121 17.9333 375.754 19.7467 375.021 21.44C374.301 23.12 373.301 24.6067 372.021 25.9C370.741 27.18 369.254 28.1867 367.561 28.92C365.868 29.64 364.054 30 362.121 30H352.861ZM357.021 25.84H362.121C363.481 25.84 364.748 25.5867 365.921 25.08C367.108 24.5733 368.154 23.8667 369.061 22.96C369.981 22.0533 370.694 21.0067 371.201 19.82C371.708 18.6333 371.961 17.36 371.961 16C371.961 14.64 371.708 13.3667 371.201 12.18C370.694 10.9933 369.981 9.94667 369.061 9.04C368.154 8.13333 367.108 7.42667 365.921 6.92C364.748 6.41333 363.481 6.16 362.121 6.16H357.021V25.84Z" fill="white"/>
<path d="M389.628 30.52C387.788 30.52 386.108 30.0467 384.588 29.1C383.081 28.1533 381.875 26.8867 380.968 25.3C380.075 23.7 379.628 21.9333 379.628 20C379.628 18.5333 379.888 17.1667 380.408 15.9C380.928 14.62 381.641 13.5 382.548 12.54C383.468 11.5667 384.535 10.8067 385.748 10.26C386.961 9.71333 388.255 9.44 389.628 9.44C391.161 9.44 392.568 9.76 393.848 10.4C395.128 11.0267 396.221 11.9 397.128 13.02C398.035 14.1267 398.701 15.4067 399.128 16.86C399.555 18.3 399.681 19.8333 399.508 21.46H384.088C384.261 22.38 384.595 23.2133 385.088 23.96C385.595 24.6933 386.235 25.2733 387.008 25.7C387.795 26.1267 388.668 26.3467 389.628 26.36C390.641 26.36 391.561 26.1067 392.388 25.6C393.228 25.0933 393.915 24.3933 394.448 23.5L398.668 24.48C397.868 26.2533 396.661 27.7067 395.048 28.84C393.435 29.96 391.628 30.52 389.628 30.52ZM383.948 18.28H395.308C395.175 17.32 394.835 16.4533 394.288 15.68C393.755 14.8933 393.081 14.2733 392.268 13.82C391.468 13.3533 390.588 13.12 389.628 13.12C388.681 13.12 387.801 13.3467 386.988 13.8C386.188 14.2533 385.521 14.8733 384.988 15.66C384.468 16.4333 384.121 17.3067 383.948 18.28Z" fill="white"/>
<path d="M414.923 30H409.583L402.283 9.96H406.723L412.243 25.2L417.783 9.96H422.203L414.923 30Z" fill="white"/>
<path d="M432.762 30.38C431.709 30.3133 430.682 30.1 429.682 29.74C428.682 29.38 427.802 28.8933 427.042 28.28C426.296 27.6533 425.736 26.92 425.362 26.08L428.902 24.56C429.076 24.92 429.376 25.2733 429.802 25.62C430.242 25.9667 430.756 26.2533 431.342 26.48C431.929 26.6933 432.542 26.8 433.182 26.8C433.809 26.8 434.389 26.7133 434.922 26.54C435.469 26.3533 435.916 26.0733 436.262 25.7C436.609 25.3267 436.782 24.88 436.782 24.36C436.782 23.7733 436.582 23.32 436.182 23C435.796 22.6667 435.309 22.4133 434.722 22.24C434.136 22.0667 433.549 21.9 432.962 21.74C431.656 21.4467 430.456 21.0467 429.362 20.54C428.282 20.02 427.422 19.36 426.782 18.56C426.142 17.7467 425.822 16.7533 425.822 15.58C425.822 14.3 426.169 13.1933 426.862 12.26C427.556 11.3133 428.462 10.5867 429.582 10.08C430.716 9.57333 431.922 9.32 433.202 9.32C434.802 9.32 436.269 9.66 437.602 10.34C438.936 11.02 439.956 11.9533 440.662 13.14L437.362 15.1C437.162 14.7 436.862 14.34 436.462 14.02C436.062 13.7 435.609 13.4467 435.102 13.26C434.596 13.06 434.069 12.9467 433.522 12.92C432.842 12.8933 432.209 12.9733 431.622 13.16C431.049 13.3333 430.589 13.6133 430.242 14C429.896 14.3867 429.722 14.88 429.722 15.48C429.722 16.0667 429.929 16.5067 430.342 16.8C430.756 17.08 431.276 17.3067 431.902 17.48C432.542 17.6533 433.196 17.8467 433.862 18.06C435.049 18.4333 436.162 18.8933 437.202 19.44C438.242 19.9733 439.082 20.6333 439.722 21.42C440.362 22.2067 440.669 23.1667 440.642 24.3C440.642 25.5533 440.262 26.6533 439.502 27.6C438.756 28.5467 437.782 29.2667 436.582 29.76C435.382 30.2533 434.109 30.46 432.762 30.38Z" fill="white"/>
</svg>
